<svg aria-hidden="true" style="position: absolute; width: 0; height: 0; overflow: hidden;" version="1.1" xmlns="http://www.w3.org/2000/svg" xmlns:xlink="http://www.w3.org/1999/xlink">
<defs>
<symbol id="icon-logo" viewBox="0 0 124 32">
<path d="M2.904 16.634c0 0.095-0.002 0.189-0.003 0.284l0.003-0.278v-0.006z"></path>
<path d="M22.593 2.777c0.403-0.022 0.839-0.044 1.203 0.038 0.204 0.046 0.34 0.121 0.458 0.301 0.075 0.412 0.143 0.819 0.158 1.238 0.033 0.888 0.025 1.784 0.017 2.677-0.004 0.405-0.009 0.81-0.009 1.214v7.695c0 0.253 0.008 0.678 0.017 1.196 0.031 1.813 0.082 4.76-0.081 5.41-0.118 0.466-0.355 0.68-0.759 0.918-0.361 0.045-0.736 0.055-1.109 0.063-0.195 0.004-0.39 0.009-0.58 0.018-1.798 0.092-3.694 0.276-5.345 1.037-0.441 0.205-0.885 0.446-1.273 0.742-0.199 0.151-0.422 0.362-0.659 0.585-0.591 0.561-1.273 1.206-1.918 1.242-0.743 0.041-1.448-0.594-2.097-1.181-0.309-0.278-0.607-0.546-0.889-0.725-0.686-0.433-1.461-0.767-2.229-1.018-1.269-0.414-2.613-0.627-3.944-0.706-0.201-0.011-0.408-0.011-0.616-0.010-0.386 0.001-0.777 0.002-1.141-0.078-0.317-0.071-0.522-0.232-0.761-0.444-0.173-0.414-0.227-0.927-0.249-1.374-0.039-0.8-0.029-1.61-0.019-2.417 0.006-0.356 0.009-0.714 0.009-1.069l0.006-6.806-0.006-5.15c0-0.225-0.009-0.469-0.019-0.722-0.026-0.685-0.056-1.43 0.093-2.013 0.082-0.32 0.267-0.463 0.535-0.634 2.953-0.191 6.177 0.423 8.772 1.865 0.861 0.48 1.639 1.066 2.423 1.66 0.441-0.329 0.885-0.658 1.338-0.968 2.443-1.67 5.352-2.494 8.297-2.567 0.12-0.003 0.247-0.011 0.377-0.018zM22.253 5.090c-0.358 0.002-0.736-0.021-1.090 0.026-2.423 0.22-5.533 1.107-7.178 3.037-0.062 0.073-0.128 0.155-0.192 0.24l-0.010 0.014-0.003 15.155c0.268-0.195 0.535-0.397 0.809-0.587 2.264-1.353 5.096-1.586 7.676-1.771 0-5.368 0.073-10.748-0.011-16.114zM2.943 5.094c-0.055 2.242-0.044 4.493-0.033 6.74 0.006 0.921 0.011 1.843 0.011 2.763 0 0.675-0.009 1.357-0.018 2.039v0.004c-0.019 1.51-0.038 3.028 0.038 4.52 2.982 0.257 5.975 0.552 8.459 2.375-0.014-5.030 0.014-10.059 0.084-15.087-1.952-2.061-5.006-3.279-7.825-3.358-0.082-0.002-0.179-0.003-0.276-0.003-0.155 0-0.309 0.003-0.462 0.008l0.022-0.001z"></path>
<path d="M22.593 2.777v0zM23.796 2.815l-0.078 0.351 0.077-0.351zM24.254 3.116l0.353-0.066-0.013-0.071-0.039-0.060-0.301 0.196zM24.412 4.354v0zM24.428 7.031v0zM24.419 15.94v0zM24.436 17.137v0zM24.355 22.547l0.349 0.088-0.35-0.088zM23.596 23.465l0.045 0.356 0.074-0.009 0.063-0.038-0.182-0.31zM22.487 23.528v0zM21.907 23.545v0zM16.562 24.583v0.001zM15.288 25.324v0zM14.63 25.909v0.001zM12.712 27.151v0zM10.615 25.971h-0.001zM9.726 25.246v0zM7.497 24.227v0zM3.553 23.521l-0.022 0.36 0.022-0.359zM2.937 23.511v0zM1.796 23.433v0zM1.035 22.989l-0.331 0.14 0.033 0.075 0.061 0.055 0.238-0.27zM0.787 21.617v0zM0.767 19.2l-0.359-0.003 0.359 0.004zM0.776 18.131v0zM0.781 11.325v0zM0.776 6.174v0zM0.757 5.452v0zM0.85 3.439v-0.001zM1.385 2.805l-0.023-0.359-0.093 0.007-0.077 0.050 0.193 0.302zM10.157 4.67l-0.177 0.314 0.177-0.313zM12.579 6.33l-0.217 0.287 0.215 0.162 0.216-0.161-0.214-0.288zM13.918 5.363v0zM22.215 2.796v0zM22.252 5.091l0.36-0.006-0.006-0.358-0.356 0.003 0.002 0.36zM21.162 5.118l0.033 0.359 0.014-0.002-0.047-0.356zM13.985 8.154v0zM13.783 8.408l-0.287-0.216-0.072 0.096v0.119h0.359zM13.78 23.563h-0.36v0.706l0.57-0.416-0.211-0.29zM14.589 22.976l-0.184-0.309-0.011 0.007-0.010 0.007 0.205 0.296zM22.264 21.205l0.025 0.359 0.334-0.024v-0.334h-0.36zM2.943 5.095l-0.011-0.36-0.34 0.011-0.009 0.34 0.36 0.009zM2.91 11.834h0.001zM2.921 14.598h-0.001zM2.903 16.637l-0.36-0.006v0.006h0.36zM2.903 16.641l0.36 0.006v-0.006h-0.361zM2.941 21.161l-0.359 0.019 0.015 0.312 0.312 0.028 0.031-0.359zM11.4 23.535l-0.212 0.289 0.574 0.422-0.002-0.713-0.36 0.002zM11.484 8.448l0.36 0.004 0.002-0.146-0.1-0.106-0.262 0.247zM3.659 5.089l0.010-0.36h-0.002l-0.008 0.36zM22.593 2.777l0.019 0.359c0.416-0.022 0.798-0.039 1.106 0.030l0.077-0.351 0.079-0.351c-0.423-0.094-0.909-0.066-1.3-0.045l0.019 0.359zM23.796 2.815l-0.078 0.351c0.078 0.018 0.121 0.036 0.148 0.053 0.036 0.025 0.065 0.056 0.086 0.092l0.001 0.001 0.602-0.393c-0.15-0.237-0.392-0.405-0.675-0.455l-0.006-0.001-0.078 0.351zM24.254 3.116l-0.353 0.064c0.074 0.41 0.138 0.796 0.152 1.187l0.718-0.026c-0.026-0.475-0.085-0.918-0.174-1.349l0.010 0.058-0.353 0.066zM24.412 4.354l-0.359 0.013c0.033 0.878 0.024 1.766 0.015 2.66l0.719 0.007c0.008-0.892 0.017-1.795-0.017-2.694l-0.36 0.013zM24.428 7.031l-0.36-0.003c-0.003 0.404-0.009 0.811-0.009 1.217h0.719c0-0.402 0.004-0.803 0.009-1.209l-0.36-0.004zM24.419 8.245h-0.36v7.695h0.719v-7.695h-0.36zM24.419 15.94h-0.36c0 0.256 0.008 0.684 0.017 1.203l0.719-0.013c-0.010-0.519-0.017-0.941-0.017-1.191h-0.36zM24.436 17.137l-0.36 0.006c0.015 0.908 0.036 2.094 0.033 3.134-0.002 0.521-0.011 1.001-0.028 1.39-0.018 0.401-0.044 0.671-0.076 0.793l0.35 0.087 0.349 0.088c0.051-0.204 0.078-0.546 0.096-0.938 0.018-0.402 0.025-0.894 0.028-1.418 0.003-1.049-0.017-2.243-0.033-3.149l-0.359 0.007zM24.355 22.547l-0.349-0.088c-0.033 0.153-0.1 0.286-0.194 0.396l0.001-0.001c-0.088 0.099-0.21 0.189-0.399 0.301l0.182 0.31 0.182 0.309c0.213-0.125 0.413-0.26 0.574-0.445 0.169-0.191 0.281-0.415 0.352-0.695l-0.35-0.087zM23.596 23.465l-0.045-0.356c-0.339 0.043-0.695 0.051-1.071 0.060l0.008 0.36 0.008 0.359c0.37-0.008 0.765-0.017 1.146-0.065l-0.045-0.356zM22.487 23.528l-0.008-0.36c-0.194 0.004-0.394 0.009-0.591 0.019l0.019 0.359 0.018 0.36c0.185-0.010 0.375-0.014 0.57-0.019l-0.008-0.359zM21.907 23.545l-0.019-0.359c-1.799 0.092-3.758 0.276-5.478 1.070l0.151 0.327 0.151 0.326c1.581-0.73 3.417-0.914 5.212-1.004l-0.018-0.36zM16.562 24.583l-0.151-0.326c-0.455 0.21-0.924 0.463-1.341 0.78l0.436 0.573c0.349-0.259 0.746-0.493 1.166-0.684l0.041-0.017-0.151-0.326zM15.288 25.324l-0.218-0.287c-0.217 0.166-0.455 0.392-0.687 0.611l0.247 0.262 0.247 0.26c0.242-0.228 0.449-0.424 0.629-0.561l-0.217-0.287zM14.63 25.909l-0.247-0.26c-0.277 0.274-0.571 0.531-0.881 0.77l-0.022 0.016c-0.309 0.224-0.572 0.345-0.788 0.356l0.020 0.36 0.020 0.359c0.427-0.023 0.828-0.244 1.17-0.492 0.348-0.253 0.684-0.57 0.975-0.847l-0.247-0.26zM12.712 27.151l-0.020-0.36c-0.263 0.015-0.546-0.088-0.868-0.298-0.321-0.207-0.639-0.492-0.968-0.789l-0.242 0.266-0.241 0.267c0.32 0.289 0.681 0.615 1.059 0.861 0.378 0.245 0.818 0.438 1.299 0.412l-0.020-0.359zM10.615 25.971l0.241-0.267c-0.302-0.273-0.625-0.563-0.938-0.761l-0.192 0.303-0.192 0.305c0.25 0.158 0.524 0.403 0.84 0.687l0.241-0.266zM9.726 25.246l0.192-0.303c-0.717-0.452-1.522-0.798-2.31-1.056l-0.113 0.342-0.111 0.341c0.82 0.263 1.532 0.596 2.191 1.005l-0.041-0.024 0.192-0.305zM7.497 24.227l0.11-0.342c-1.304-0.426-2.679-0.642-4.033-0.723l-0.022 0.36-0.020 0.359c1.308 0.077 2.62 0.286 3.851 0.689l0.113-0.342zM3.553 23.521l0.022-0.359c-0.147-0.008-0.32-0.012-0.494-0.012-0.051 0-0.102 0-0.153 0.001l0.008-0 0.002 0.719c0.21 0 0.405-0.001 0.593 0.010l0.022-0.359zM2.937 23.511v-0.36c-0.394 0.001-0.745 0-1.064-0.071l-0.077 0.352-0.077 0.351c0.409 0.090 0.841 0.088 1.219 0.087v-0.36zM1.796 23.433l0.077-0.351c-0.222-0.050-0.369-0.157-0.599-0.362l-0.477 0.538c0.246 0.218 0.509 0.434 0.92 0.525l0.078-0.351zM1.035 22.989l0.332-0.139c-0.148-0.353-0.201-0.811-0.222-1.251l-0.36 0.017-0.359 0.018c0.022 0.452 0.077 1.020 0.277 1.496l0.331-0.14zM0.787 21.617l0.36-0.017c-0.018-0.45-0.029-0.978-0.029-1.509 0-0.312 0.004-0.622 0.011-0.932l-0.001 0.046-0.361-0.006-0.359-0.004c-0.011 0.804-0.021 1.625 0.019 2.438l0.359-0.018zM0.767 19.2l0.36 0.006c0.004-0.358 0.009-0.717 0.009-1.075h-0.718c0 0.353-0.004 0.708-0.009 1.066l0.359 0.004zM0.776 18.131h0.36l0.006-6.806h-0.719l-0.004 6.805h0.359zM0.781 11.325h0.36l-0.006-5.15h-0.718l0.004 5.15h0.36zM0.776 6.174h0.36c0-0.233-0.010-0.486-0.020-0.736l-0.718 0.029c0.011 0.254 0.019 0.491 0.020 0.707h0.359zM0.757 5.452l0.359-0.014c-0.026-0.701-0.051-1.388 0.082-1.909l-0.348-0.090-0.349-0.089c-0.164 0.646-0.129 1.449-0.104 2.116l0.36-0.013zM0.85 3.439l0.348 0.088c0.046-0.18 0.128-0.258 0.381-0.419l-0.193-0.303-0.193-0.302c-0.284 0.181-0.574 0.386-0.691 0.847l0.349 0.088zM1.385 2.805l0.023 0.359c2.893-0.188 6.047 0.416 8.574 1.821l0.174-0.313 0.175-0.314c-2.663-1.481-5.959-2.105-8.97-1.909l0.023 0.358zM10.157 4.67l-0.177 0.314c0.838 0.466 1.594 1.037 2.383 1.632l0.433-0.574c-0.781-0.591-1.578-1.192-2.465-1.686l-0.175 0.314zM12.579 6.33l0.214 0.287c0.441-0.328 0.881-0.652 1.327-0.958l-0.203-0.298-0.202-0.296c-0.461 0.314-0.91 0.647-1.352 0.977l0.215 0.287zM13.918 5.363l0.203 0.297c2.378-1.625 5.217-2.433 8.103-2.505l-0.009-0.359-0.009-0.36c-3.006 0.075-5.984 0.916-8.49 2.63l0.202 0.297zM22.215 2.796l0.009 0.359c0.127-0.003 0.26-0.011 0.387-0.018l-0.019-0.359-0.020-0.359c-0.132 0.007-0.253 0.013-0.366 0.017l0.009 0.36zM22.252 5.091l-0.003-0.36c-0.322 0.002-0.75-0.021-1.134 0.030l0.095 0.713c0.324-0.043 0.653-0.021 1.046-0.024l-0.003-0.359zM21.162 5.118l-0.033-0.358c-1.463 0.133-2.812 0.451-4.081 0.933l0.105-0.035c-1.319 0.503-2.568 1.236-3.443 2.262l0.274 0.234 0.274 0.233c0.77-0.903 1.898-1.579 3.151-2.057 1.107-0.425 2.392-0.728 3.728-0.85l0.057-0.004-0.033-0.359zM13.985 8.154l-0.275-0.232c-0.074 0.088-0.146 0.178-0.214 0.269l0.287 0.216 0.287 0.215c0.069-0.092 0.132-0.169 0.196-0.245l-0.006 0.007-0.275-0.232zM13.783 8.408h-0.359l-0.004 15.155h0.718l0.004-15.155h-0.36zM13.78 23.563l0.211 0.29c0.276-0.201 0.534-0.395 0.803-0.583l-0.205-0.295-0.205-0.296c-0.277 0.192-0.554 0.402-0.817 0.591l0.213 0.291zM14.589 22.976l0.184 0.309c2.178-1.302 4.921-1.534 7.517-1.721l-0.051-0.717c-2.566 0.184-5.485 0.417-7.834 1.821l0.184 0.309zM22.264 21.205h0.36c0-5.362 0.072-10.749-0.011-16.119l-0.719 0.011c0.084 5.363 0.011 10.733 0.011 16.108h0.36zM2.943 5.095l-0.36-0.009c-0.055 2.248-0.044 4.504-0.032 6.751l0.719-0.004c-0.011-2.248-0.023-4.493 0.032-6.729l-0.36-0.009zM2.91 11.834l-0.359 0.002c0.004 0.921 0.010 1.843 0.010 2.761h0.718c0-0.921-0.004-1.843-0.009-2.765l-0.36 0.002zM2.921 14.598h-0.361c0 0.673-0.009 1.352-0.018 2.034l0.36 0.006 0.36 0.004c0.009-0.682 0.018-1.365 0.017-2.044h-0.359zM2.903 16.637h-0.36v0.004h0.719v-0.006h-0.361zM2.903 16.641l-0.36-0.004c-0.019 1.508-0.038 3.037 0.039 4.542l0.718-0.035c-0.075-1.479-0.056-2.986-0.038-4.497l-0.36-0.006zM2.941 21.161l-0.031 0.359c2.996 0.257 5.887 0.552 8.278 2.306l0.212-0.291 0.213-0.289c-2.577-1.891-5.673-2.187-8.64-2.442l-0.032 0.358zM11.4 23.535l0.36-0.002c-0.014-5.027 0.013-10.054 0.084-15.081l-0.36-0.004-0.359-0.006c-0.056 3.739-0.089 8.152-0.089 12.573 0 0.886 0.001 1.772 0.004 2.657l-0-0.137h0.36zM11.484 8.448l0.262-0.247c-2.026-2.138-5.175-3.389-8.077-3.47l-0.009 0.36-0.011 0.359c2.734 0.077 5.696 1.262 7.575 3.246l0.26-0.247zM3.659 5.089l0.008-0.36c-0.085-0.002-0.185-0.003-0.286-0.003-0.158 0-0.315 0.003-0.472 0.008l0.023-0.001 0.011 0.36 0.011 0.359c0.233-0.008 0.466-0.009 0.697-0.004l0.008-0.359zM33.633 4.433c2.88-0.051 7.732-0.135 9.329 0.477 1.219 0.468 2.258 1.388 2.79 2.59 0.523 1.185 0.561 2.753 0.086 3.959-0.508 1.289-1.438 1.833-2.642 2.353l0.281 0.098c0.258 0.088 0.516 0.18 0.759 0.299 1.106 0.564 1.948 1.515 2.356 2.67l0.010 0.033c0.489 1.442 0.301 3.057-0.36 4.407-0.495 0.839-1.188 1.513-2.016 1.972l-0.027 0.014c-0.754 0.422-1.498 0.591-2.349 0.704-1.294 0.172-8.792 0.284-9.734-0.036-0.127-0.044-0.254-0.092-0.311-0.217-0.139-0.3-0.158-0.761-0.173-1.116l-0.003-0.099c-0.090-2.015-0.062-4.058-0.033-6.092 0.013-0.905 0.028-1.81 0.030-2.708 0.002-0.865-0.010-1.737-0.021-2.61-0.022-1.703-0.044-3.411 0.033-5.095 0.018-0.364 0.047-0.772 0.18-1.114 0.099-0.263 0.23-0.353 0.476-0.47 0.362-0.002 0.819-0.010 1.341-0.019zM40.832 15.375c-1.049-0.25-4.364-0.077-5.625-0.077v5.752c1.482 0.003 4.706 0.191 5.975-0.135 0.467-0.111 0.871-0.332 1.199-0.636l-0.002 0.002c0.57-0.673 0.866-1.352 0.781-2.254-0.077-0.802-0.419-1.484-1.045-1.999-0.357-0.301-0.788-0.527-1.261-0.647l-0.022-0.005zM41.72 7.991c-1.011-0.783-3.663-0.698-5.466-0.64-0.399 0.012-0.757 0.023-1.046 0.024l0.002 5.12c0.335 0.001 0.746 0.012 1.192 0.024 1.479 0.038 3.362 0.086 4.345-0.166 0.464-0.115 0.868-0.323 1.209-0.605l-0.005 0.004c0.481-0.583 0.743-1.247 0.681-2.013-0.054-0.673-0.375-1.332-0.911-1.749zM63.345 15.886c-0.512-3.738-3.685-6.588-7.523-6.588-4.192 0-7.59 3.398-7.59 7.59 0 0.353 0.024 0.701 0.071 1.041l-0.004-0.040c0.512 3.738 3.685 6.588 7.523 6.588 4.192 0 7.59-3.398 7.59-7.59 0-0.353-0.024-0.701-0.071-1.041l0.004 0.040zM55.302 12.579c0.844-0.042 1.589-0.028 2.336 0.428 0.84 0.512 1.362 1.386 1.589 2.326 0.323 1.331 0.247 3.165-0.502 4.349-0.536 0.849-1.283 1.225-2.23 1.432-0.908 0.092-1.81 0.006-2.589-0.516-0.82-0.551-1.298-1.449-1.484-2.401-0.264-1.352-0.181-3.108 0.637-4.266 0.561-0.794 1.308-1.186 2.243-1.352zM79.631 15.84c-0.492-3.754-3.671-6.623-7.52-6.623-4.187 0-7.581 3.394-7.581 7.581 0 0.394 0.030 0.781 0.088 1.159l-0.005-0.042c0.563 3.679 3.705 6.464 7.498 6.464 4.187 0 7.581-3.394 7.581-7.581 0-0.338-0.022-0.67-0.065-0.996l0.004 0.038zM71.53 12.582c0.82-0.067 1.614-0.042 2.351 0.371 0.876 0.491 1.411 1.352 1.661 2.303 0.358 1.366 0.287 3.128-0.461 4.361-0.53 0.872-1.286 1.279-2.251 1.496-0.905 0.117-1.796 0.017-2.574-0.495-0.831-0.545-1.313-1.434-1.515-2.388-0.285-1.348-0.192-3.085 0.594-4.257 0.534-0.794 1.277-1.202 2.196-1.39zM82.658 3.818c0.056-0.004 0.113-0.009 0.17-0.011 0.563-0.019 1.818-0.128 2.201 0.387 0.163 0.221 0.188 0.68 0.207 0.951 0.085 1.144 0.017 2.343 0.017 3.492l0.001 6.772c0.801-0.952 1.722-1.824 2.568-2.74 0.834-0.905 1.636-1.945 2.56-2.751 0.221-0.192 0.386-0.294 0.671-0.371 0.59-0.161 2.729-0.28 3.179 0.041 0.116 0.082 0.213 0.239 0.204 0.384-0.040 0.646-4.298 4.844-5.041 5.578 2.646 3.911 4.005 5.842 5.376 7.765l-1.243-1.836c0.345 0.502 1.329 1.578 1.203 2.2-0.037 0.14-0.129 0.254-0.251 0.319l-0.003 0.001c-0.64 0.351-3.092 0.12-3.858-0.13-0.547-0.55-0.993-1.345-1.433-1.984l-2.665-3.884-1.273 1.106c-0.004 1.020 0.3 4.017-0.355 4.701-0.294 0.306-0.676 0.329-1.075 0.333-0.61 0.006-1.79 0.107-2.236-0.329-0.114-1.173-0.076-2.361-0.077-3.539l-0.001-5.030v-6.892c0-1.225-0.044-2.467 0.013-3.69 0.008-0.166 0.012-0.307 0.11-0.448 0.234-0.339 0.659-0.344 1.031-0.395zM108.562 9.416c0.804-0.018 2.404-0.195 3.128 0.104 0.271 0.113 0.394 0.39 0.515 0.642 0.515 1.074 0.852 2.311 1.267 3.432 0.721 1.95 1.497 3.879 2.229 5.824 0.425-1.098 3.36-9.28 3.841-9.688 0.235-0.199 0.683-0.243 0.977-0.25 0.619-0.018 1.775-0.154 2.244 0.278 0.118 0.278 0.103 0.43 0.034 0.729-0.241 1.044-0.751 2.127-1.126 3.134l-2.409 6.472-1.628 4.412c-0.327 0.89-0.616 1.843-1.039 2.69-0.245 0.497-0.541 0.925-0.889 1.304l0.004-0.004c-0.865 0.927-1.997 1.325-3.243 1.368-0.534 0.019-1.45 0.118-1.863-0.264-0.263-0.532-0.285-1.773-0.116-2.347 0.166-0.558 1.389-0.452 1.882-0.729 0.793-0.447 1.010-1.326 1.215-2.143-0.638-1.928-5.438-13.716-5.391-14.382 0.020-0.29 0.157-0.414 0.366-0.58zM100.676 9.357c0.403-0.061 0.845-0.044 1.255-0.040 1.626 0.017 3.447 0.36 4.619 1.583 0.538 0.563 0.931 1.412 0.872 2.206-0.009 0.135-0.046 0.329-0.162 0.41-0.585 0.413-2.179 0.331-2.874 0.238-0.616-0.083-0.568-0.494-0.949-0.946-0.418-0.497-1.030-0.74-1.666-0.787-0.71-0.052-1.606 0.179-2.134 0.676-0.232 0.221-0.479 0.787-0.441 1.103 0.166 1.383 4.060 1.56 5.181 1.843 0.949 0.238 1.929 0.595 2.688 1.235 0.721 0.607 1.046 1.434 1.119 2.358 0.090 1.14-0.243 2.231-0.999 3.094-1.313 1.5-3.229 1.94-5.134 2.080-1.464 0.050-3.040-0.151-4.359-0.828-0.954-0.491-1.817-1.258-2.136-2.317-0.13-0.433-0.217-0.938 0.012-1.348 0.666-0.522 2.485-0.318 3.294-0.287 0.271 0.414 0.439 0.9 0.811 1.245 0.629 0.578 1.554 0.754 2.383 0.712 0.678-0.033 1.399-0.226 1.854-0.765 0.252-0.297 0.397-0.678 0.359-1.070-0.15-1.567-4.011-1.561-5.206-1.837-0.863-0.199-1.743-0.548-2.442-1.102-0.736-0.585-1.206-1.37-1.295-2.313-0.010-0.114-0.016-0.246-0.016-0.38 0-1.068 0.379-2.047 1.010-2.811l-0.006 0.007c1.107-1.342 2.698-1.796 4.365-1.96z"></path>
</symbol>
<symbol id="icon-down" viewBox="0 0 32 32">
<path d="M27.448 6.115l-11.448 11.448-11.448-11.448-3.771 3.771 15.219 15.219 15.219-15.219-3.771-3.771z"></path>
</symbol>
<symbol id="icon-left" viewBox="0 0 32 32">
<path d="M22.115 0.781l-15.219 15.219 15.219 15.219 3.771-3.771-11.448-11.448 11.448-11.448-3.771-3.771z"></path>
</symbol>
<symbol id="icon-right" viewBox="0 0 32 32">
<path d="M9.885 31.867l15.219-15.219-15.219-15.219-3.771 3.771 11.448 11.448-11.448 11.448 3.771 3.771z"></path>
</symbol>
<symbol id="icon-up2" viewBox="0 0 32 32">
<path d="M13.714 10.089v21.911h4.571v-21.911l9.813 9.813 3.232-3.232-15.33-15.33-15.33 15.33 3.232 3.232 9.813-9.813z"></path>
</symbol>
<symbol id="icon-left2" viewBox="0 0 32 32">
<path d="M19.902 28.098l-9.813-9.813h21.911v-4.571h-21.911l9.813-9.813-3.232-3.232-15.33 15.33 15.33 15.33 3.232-3.232z"></path>
</symbol>
<symbol id="icon-right2" viewBox="0 0 32 32">
<path d="M12.098 28.098l3.232 3.232 15.33-15.33-15.33-15.33-3.232 3.232 9.813 9.813h-21.911v4.571h21.911l-9.813 9.813z"></path>
</symbol>
<symbol id="icon-down2" viewBox="0 0 32 32">
<path d="M31.33 15.33l-3.232-3.232-9.813 9.813v-21.911h-4.571v21.911l-9.813-9.813-3.232 3.232 15.33 15.33 15.33-15.33z"></path>
</symbol>
<symbol id="icon-minus" viewBox="0 0 32 32">
<path d="M0 13.714h32v4.571h-32v-4.571z"></path>
</symbol>
<symbol id="icon-plus" viewBox="0 0 32 32">
<path d="M32 13.714h-13.714v-13.714h-4.571v13.714h-13.714v4.571h13.714v13.714h4.571v-13.714h13.714v-4.571z"></path>
</symbol>
<symbol id="icon-accept" viewBox="0 0 32 32">
<path d="M10.667 21.517l-7.025-7.025-3.017 3.017 10.042 10.042 20.708-20.708-3.017-3.017-17.692 17.692z"></path>
</symbol>
<symbol id="icon-decline" viewBox="0 0 32 32">
<path d="M27.179 0.917l-11.315 11.312-11.312-11.312-3.771 3.771 11.312 11.312-11.312 11.312 3.771 3.771 11.312-11.312 11.315 11.312 3.771-3.771-11.312-11.312 11.312-11.312-3.771-3.771z"></path>
</symbol>
<symbol id="icon-star" viewBox="0 0 32 32">
<path d="M7.226 19.717l-2.384 10.323c-0.027 0.11-0.043 0.237-0.043 0.367 0 0.882 0.715 1.597 1.597 1.597 0.333 0 0.642-0.102 0.898-0.276l-0.006 0.004 8.712-5.808 8.712 5.808c0.249 0.167 0.556 0.267 0.886 0.267 0.885 0 1.602-0.717 1.602-1.602 0-0.155-0.022-0.305-0.063-0.447l0.003 0.011-2.926-10.24 7.258-6.531c0.326-0.294 0.529-0.718 0.529-1.189 0-0.839-0.646-1.527-1.468-1.595l-0.006-0-9.122-0.726-3.947-8.738c-0.255-0.563-0.811-0.947-1.458-0.947s-1.203 0.384-1.454 0.937l-0.004 0.010-3.947 8.738-9.122 0.725c-0.828 0.068-1.474 0.756-1.474 1.595 0 0.449 0.185 0.855 0.483 1.145l0 0 6.742 6.571zM11.79 12.795c0.594-0.048 1.092-0.415 1.327-0.928l0.004-0.010 2.878-6.37 2.878 6.37c0.239 0.523 0.737 0.889 1.326 0.937l0.006 0 6.355 0.504-5.234 4.71c-0.454 0.41-0.635 1.040-0.469 1.629l2.005 7.016-5.978-3.986c-0.249-0.169-0.556-0.27-0.887-0.27s-0.638 0.101-0.893 0.274l0.006-0.004-6.246 4.165 1.68-7.274c0.026-0.108 0.041-0.232 0.041-0.359 0-0.449-0.185-0.854-0.482-1.145l-0-0-4.861-4.739 6.544-0.522z"></path>
</symbol>
<symbol id="icon-burger" viewBox="0 0 32 32">
<path d="M0 4h32v4h-32v-4zM8 14h24v4h-24v-4zM18 24h14v4h-14v-4z"></path>
</symbol>
<symbol id="icon-mail" viewBox="0 0 32 32">
<path d="M28.8 3.2h-25.6c-1.765 0-3.2 1.435-3.2 3.2v19.2c0 1.765 1.435 3.2 3.2 3.2h25.6c1.765 0 3.2-1.435 3.2-3.2v-19.2c0-1.765-1.435-3.2-3.2-3.2zM28.8 6.4v0.818l-12.8 9.957-12.8-9.955v-0.819h25.6zM3.2 25.6v-14.33l11.818 9.192c0.268 0.212 0.61 0.34 0.982 0.34s0.715-0.128 0.986-0.342l-0.003 0.003 11.818-9.192 0.003 14.33h-25.603z"></path>
</symbol>
<symbol id="icon-phone" viewBox="0 0 32 32">
<path d="M24.77 17.336c-0.304-0.305-0.726-0.494-1.191-0.494s-0.886 0.189-1.191 0.494l-2.683 2.685c-1.245-0.371-3.567-1.213-5.039-2.685s-2.314-3.795-2.685-5.039l2.685-2.685c0.305-0.305 0.494-0.726 0.494-1.191s-0.189-0.886-0.494-1.191l-6.737-6.737c-0.305-0.305-0.726-0.494-1.191-0.494s-0.886 0.189-1.191 0.494l-4.569 4.568c-0.64 0.64-1 1.519-0.987 2.417 0.039 2.398 0.674 10.728 7.239 17.293s14.895 7.198 17.297 7.239h0.045c0.889 0 1.73-0.35 2.366-0.987l4.568-4.568c0.305-0.304 0.495-0.726 0.495-1.191s-0.189-0.886-0.494-1.191l-6.737-6.739zM24.556 28.64c-2.102-0.035-9.293-0.6-14.944-6.252-5.669-5.669-6.218-12.886-6.252-14.946l3.377-3.377 4.355 4.355-2.178 2.178c-0.305 0.305-0.494 0.726-0.494 1.191 0 0.122 0.013 0.241 0.038 0.356l-0.002-0.011c0.040 0.194 1.029 4.787 3.825 7.582s7.389 3.784 7.582 3.825c0.105 0.024 0.226 0.037 0.35 0.037 0.464 0 0.883-0.189 1.186-0.493l2.179-2.178 4.355 4.355-3.379 3.377z"></path>
</symbol>
<symbol id="icon-geo" viewBox="0 0 26 32">
<path d="M12.8 19.2c3.53 0 6.4-2.87 6.4-6.4s-2.87-6.4-6.4-6.4-6.4 2.87-6.4 6.4 2.87 6.4 6.4 6.4zM12.8 9.6c1.765 0 3.2 1.435 3.2 3.2s-1.435 3.2-3.2 3.2-3.2-1.435-3.2-3.2 1.435-3.2 3.2-3.2z"></path>
<path d="M11.872 31.702c0.258 0.186 0.58 0.297 0.928 0.297s0.67-0.111 0.933-0.301l-0.005 0.003c0.486-0.344 11.92-8.598 11.872-18.902 0-7.058-5.742-12.8-12.8-12.8-7.056 0-12.8 5.742-12.8 12.792-0.046 10.312 11.386 18.566 11.872 18.91zM12.8 3.2c5.296 0 9.6 4.306 9.6 9.608 0.034 7.101-7.021 13.477-9.6 15.568-2.576-2.093-9.632-8.47-9.6-15.576 0-5.294 4.306-9.6 9.6-9.6z"></path>
</symbol>
<symbol id="icon-up" viewBox="0 0 32 32">
<path d="M0.781 22.115l3.771 3.771 11.448-11.448 11.448 11.448 3.771-3.771-15.219-15.219-15.219 15.219z"></path>
</symbol>
</defs>
</svg>
