<svg aria-hidden="true" style="position: absolute; width: 0; height: 0; overflow: hidden;" version="1.1" xmlns="http://www.w3.org/2000/svg" xmlns:xlink="http://www.w3.org/1999/xlink">
<defs>
<symbol id="icon-down" viewBox="0 0 32 32">
<path d="M27.448 6.115l-11.448 11.448-11.448-11.448-3.771 3.771 15.219 15.219 15.219-15.219-3.771-3.771z"></path>
</symbol>
<symbol id="icon-left" viewBox="0 0 32 32">
<path d="M22.115 0.781l-15.219 15.219 15.219 15.219 3.771-3.771-11.448-11.448 11.448-11.448-3.771-3.771z"></path>
</symbol>
<symbol id="icon-right" viewBox="0 0 32 32">
<path d="M9.885 31.867l15.219-15.219-15.219-15.219-3.771 3.771 11.448 11.448-11.448 11.448 3.771 3.771z"></path>
</symbol>
<symbol id="icon-up2" viewBox="0 0 32 32">
<path d="M13.714 10.089v21.911h4.571v-21.911l9.813 9.813 3.232-3.232-15.33-15.33-15.33 15.33 3.232 3.232 9.813-9.813z"></path>
</symbol>
<symbol id="icon-left2" viewBox="0 0 32 32">
<path d="M19.902 28.098l-9.813-9.813h21.911v-4.571h-21.911l9.813-9.813-3.232-3.232-15.33 15.33 15.33 15.33 3.232-3.232z"></path>
</symbol>
<symbol id="icon-right2" viewBox="0 0 32 32">
<path d="M12.098 28.098l3.232 3.232 15.33-15.33-15.33-15.33-3.232 3.232 9.813 9.813h-21.911v4.571h21.911l-9.813 9.813z"></path>
</symbol>
<symbol id="icon-down2" viewBox="0 0 32 32">
<path d="M31.33 15.33l-3.232-3.232-9.813 9.813v-21.911h-4.571v21.911l-9.813-9.813-3.232 3.232 15.33 15.33 15.33-15.33z"></path>
</symbol>
<symbol id="icon-minus" viewBox="0 0 32 32">
<path d="M0 13.714h32v4.571h-32v-4.571z"></path>
</symbol>
<symbol id="icon-plus" viewBox="0 0 32 32">
<path d="M32 13.714h-13.714v-13.714h-4.571v13.714h-13.714v4.571h13.714v13.714h4.571v-13.714h13.714v-4.571z"></path>
</symbol>
<symbol id="icon-accept" viewBox="0 0 32 32">
<path d="M10.667 21.517l-7.025-7.025-3.017 3.017 10.042 10.042 20.708-20.708-3.017-3.017-17.692 17.692z"></path>
</symbol>
<symbol id="icon-decline" viewBox="0 0 32 32">
<path d="M27.179 0.917l-11.315 11.312-11.312-11.312-3.771 3.771 11.312 11.312-11.312 11.312 3.771 3.771 11.312-11.312 11.315 11.312 3.771-3.771-11.312-11.312 11.312-11.312-3.771-3.771z"></path>
</symbol>
<symbol id="icon-star" viewBox="0 0 32 32">
<path d="M7.226 19.717l-2.384 10.323c-0.027 0.11-0.043 0.237-0.043 0.367 0 0.882 0.715 1.597 1.597 1.597 0.333 0 0.642-0.102 0.898-0.276l-0.006 0.004 8.712-5.808 8.712 5.808c0.249 0.167 0.556 0.267 0.886 0.267 0.885 0 1.602-0.717 1.602-1.602 0-0.155-0.022-0.305-0.063-0.447l0.003 0.011-2.926-10.24 7.258-6.531c0.326-0.294 0.529-0.718 0.529-1.189 0-0.839-0.646-1.527-1.468-1.595l-0.006-0-9.122-0.726-3.947-8.738c-0.255-0.563-0.811-0.947-1.458-0.947s-1.203 0.384-1.454 0.937l-0.004 0.010-3.947 8.738-9.122 0.725c-0.828 0.068-1.474 0.756-1.474 1.595 0 0.449 0.185 0.855 0.483 1.145l0 0 6.742 6.571zM11.79 12.795c0.594-0.048 1.092-0.415 1.327-0.928l0.004-0.010 2.878-6.37 2.878 6.37c0.239 0.523 0.737 0.889 1.326 0.937l0.006 0 6.355 0.504-5.234 4.71c-0.454 0.41-0.635 1.040-0.469 1.629l2.005 7.016-5.978-3.986c-0.249-0.169-0.556-0.27-0.887-0.27s-0.638 0.101-0.893 0.274l0.006-0.004-6.246 4.165 1.68-7.274c0.026-0.108 0.041-0.232 0.041-0.359 0-0.449-0.185-0.854-0.482-1.145l-0-0-4.861-4.739 6.544-0.522z"></path>
</symbol>
<symbol id="icon-burger" viewBox="0 0 32 32">
<path d="M0 4h32v4h-32v-4zM8 14h24v4h-24v-4zM18 24h14v4h-14v-4z"></path>
</symbol>
<symbol id="icon-mail" viewBox="0 0 32 32">
<path d="M28.8 3.2h-25.6c-1.765 0-3.2 1.435-3.2 3.2v19.2c0 1.765 1.435 3.2 3.2 3.2h25.6c1.765 0 3.2-1.435 3.2-3.2v-19.2c0-1.765-1.435-3.2-3.2-3.2zM28.8 6.4v0.818l-12.8 9.957-12.8-9.955v-0.819h25.6zM3.2 25.6v-14.33l11.818 9.192c0.268 0.212 0.61 0.34 0.982 0.34s0.715-0.128 0.986-0.342l-0.003 0.003 11.818-9.192 0.003 14.33h-25.603z"></path>
</symbol>
<symbol id="icon-phone" viewBox="0 0 32 32">
<path d="M24.77 17.336c-0.304-0.305-0.726-0.494-1.191-0.494s-0.886 0.189-1.191 0.494l-2.683 2.685c-1.245-0.371-3.567-1.213-5.039-2.685s-2.314-3.795-2.685-5.039l2.685-2.685c0.305-0.305 0.494-0.726 0.494-1.191s-0.189-0.886-0.494-1.191l-6.737-6.737c-0.305-0.305-0.726-0.494-1.191-0.494s-0.886 0.189-1.191 0.494l-4.569 4.568c-0.64 0.64-1 1.519-0.987 2.417 0.039 2.398 0.674 10.728 7.239 17.293s14.895 7.198 17.297 7.239h0.045c0.889 0 1.73-0.35 2.366-0.987l4.568-4.568c0.305-0.304 0.495-0.726 0.495-1.191s-0.189-0.886-0.494-1.191l-6.737-6.739zM24.556 28.64c-2.102-0.035-9.293-0.6-14.944-6.252-5.669-5.669-6.218-12.886-6.252-14.946l3.377-3.377 4.355 4.355-2.178 2.178c-0.305 0.305-0.494 0.726-0.494 1.191 0 0.122 0.013 0.241 0.038 0.356l-0.002-0.011c0.040 0.194 1.029 4.787 3.825 7.582s7.389 3.784 7.582 3.825c0.105 0.024 0.226 0.037 0.35 0.037 0.464 0 0.883-0.189 1.186-0.493l2.179-2.178 4.355 4.355-3.379 3.377z"></path>
</symbol>
<symbol id="icon-geo" viewBox="0 0 26 32">
<path d="M12.8 19.2c3.53 0 6.4-2.87 6.4-6.4s-2.87-6.4-6.4-6.4-6.4 2.87-6.4 6.4 2.87 6.4 6.4 6.4zM12.8 9.6c1.765 0 3.2 1.435 3.2 3.2s-1.435 3.2-3.2 3.2-3.2-1.435-3.2-3.2 1.435-3.2 3.2-3.2z"></path>
<path d="M11.872 31.702c0.258 0.186 0.58 0.297 0.928 0.297s0.67-0.111 0.933-0.301l-0.005 0.003c0.486-0.344 11.92-8.598 11.872-18.902 0-7.058-5.742-12.8-12.8-12.8-7.056 0-12.8 5.742-12.8 12.792-0.046 10.312 11.386 18.566 11.872 18.91zM12.8 3.2c5.296 0 9.6 4.306 9.6 9.608 0.034 7.101-7.021 13.477-9.6 15.568-2.576-2.093-9.632-8.47-9.6-15.576 0-5.294 4.306-9.6 9.6-9.6z"></path>
</symbol>
<symbol id="icon-up" viewBox="0 0 32 32">
<path d="M0.781 22.115l3.771 3.771 11.448-11.448 11.448 11.448 3.771-3.771-15.219-15.219-15.219 15.219z"></path>
</symbol>
</defs>
</svg>
