<svg width="17" height="18" viewBox="0 0 17 18" fill="none" xmlns="http://www.w3.org/2000/svg">
  <path d="M15.3574 0.388128C15.6313 0.37357 15.9264 0.358333 16.1738 0.413519C16.3131 0.444579 16.4057 0.495626 16.4853 0.61762C16.5366 0.897574 16.5822 1.17458 16.5927 1.45942C16.6152 2.06329 16.6102 2.67166 16.6045 3.27875C16.6018 3.5541 16.5986 3.82963 16.5986 4.10395V9.33442C16.5988 9.5061 16.6032 9.79505 16.6094 10.1469C16.6306 11.3791 16.6655 13.3827 16.5547 13.8247C16.4752 14.1412 16.3134 14.287 16.039 14.4487C15.794 14.4798 15.5384 14.4861 15.2851 14.4916C15.1526 14.4946 15.0203 14.4968 14.8906 14.5034C13.6693 14.5654 12.3796 14.6909 11.2578 15.2094C10.9575 15.3482 10.6565 15.5115 10.3926 15.7123C10.2573 15.8153 10.1054 15.9583 9.94431 16.1108C9.54261 16.4911 9.07843 16.9301 8.6406 16.9545C8.13585 16.9823 7.65742 16.5503 7.2158 16.1518C7.00573 15.9623 6.8034 15.7809 6.6113 15.6596C6.14531 15.3654 5.61828 15.1383 5.09568 14.9672C4.23364 14.6853 3.3203 14.5405 2.41599 14.4868C2.27945 14.4785 2.13846 14.4794 1.99705 14.4799C1.7347 14.4808 1.46907 14.4818 1.22165 14.4272C1.00615 14.3793 0.867093 14.2699 0.705053 14.1264C0.586388 13.8445 0.549743 13.4958 0.535132 13.1918C0.508981 12.6483 0.515612 12.0982 0.522436 11.5502C0.525489 11.3072 0.52815 11.0643 0.528296 10.8227L0.532202 6.19672L0.528296 2.69575C0.528192 2.54305 0.521346 2.37711 0.514624 2.20551C0.496492 1.74052 0.476943 1.23386 0.5781 0.837347C0.63374 0.619464 0.759948 0.523074 0.942358 0.406683C2.94915 0.27659 5.14101 0.693297 6.90427 1.67426C7.48996 2.00008 8.01748 2.39916 8.55076 2.80219C8.85053 2.57863 9.15309 2.35499 9.46189 2.14399C11.1218 1.00973 13.0984 0.449744 15.1006 0.399847C15.1823 0.397806 15.2689 0.392829 15.3574 0.388128ZM15.126 1.95942C14.8829 1.96142 14.6254 1.94603 14.3847 1.97797C12.7376 2.12688 10.6243 2.72945 9.50583 4.04145C9.45847 4.09751 9.41321 4.15561 9.36912 4.2143L9.36619 14.5151C9.54906 14.3822 9.73023 14.2447 9.91599 14.1157C11.4548 13.1964 13.3799 13.0386 15.1338 12.9125C15.1339 9.26381 15.1824 5.60746 15.126 1.95942ZM2.00095 1.96137C1.9632 3.48558 1.9715 5.01597 1.97947 6.5434C1.98276 7.16948 1.98621 7.79528 1.9863 8.42035C1.9864 8.87971 1.98045 9.34256 1.97458 9.8061V9.81C1.96165 10.836 1.94891 11.8679 1.99998 12.8823C4.02641 13.0567 6.06099 13.2568 7.749 14.4956C7.73902 11.077 7.75777 7.6587 7.80564 4.24067C6.47861 2.83974 4.40215 2.0122 2.48728 1.95844C2.32524 1.95497 2.16289 1.95609 2.00095 1.96137Z" fill="#010101" />
  <path d="M15.3574 0.388128L15.3704 0.63214L15.3704 0.63214L15.3574 0.388128ZM16.1738 0.413519L16.1206 0.652016L16.1206 0.652021L16.1738 0.413519ZM16.4853 0.61762L16.7257 0.573616L16.7168 0.525222L16.6899 0.484026L16.4853 0.61762ZM16.5927 1.45942L16.3486 1.46846L16.3486 1.46851L16.5927 1.45942ZM16.6045 3.27875L16.8488 3.28108V3.28108L16.6045 3.27875ZM16.5986 9.33442H16.3543V9.33469L16.5986 9.33442ZM16.6094 10.1469L16.8537 10.1427V10.1427L16.6094 10.1469ZM16.5547 13.8247L16.7917 13.8842L16.7917 13.8841L16.5547 13.8247ZM16.039 14.4487L16.0698 14.6911L16.1197 14.6847L16.1631 14.6592L16.039 14.4487ZM15.2851 14.4916L15.2797 14.2473H15.2797L15.2851 14.4916ZM14.8906 14.5034L14.8783 14.2593L14.8782 14.2593L14.8906 14.5034ZM11.2578 15.2094L11.3603 15.4312L11.3603 15.4312L11.2578 15.2094ZM10.3926 15.7123L10.5405 15.9068L10.5405 15.9068L10.3926 15.7123ZM9.94431 16.1108L9.77633 15.9333L9.77632 15.9333L9.94431 16.1108ZM8.6406 16.9545L8.65405 17.1985L8.65422 17.1985L8.6406 16.9545ZM7.2158 16.1518L7.37949 15.9704L7.37947 15.9704L7.2158 16.1518ZM6.6113 15.6596L6.74179 15.453L6.74175 15.453L6.6113 15.6596ZM5.09568 14.9672L5.17169 14.735L5.17163 14.735L5.09568 14.9672ZM2.41599 14.4868L2.40132 14.7307L2.40149 14.7307L2.41599 14.4868ZM1.99705 14.4799L1.99622 14.2356H1.99622L1.99705 14.4799ZM1.22165 14.4272L1.16862 14.6657L1.16899 14.6658L1.22165 14.4272ZM0.705053 14.1264L0.479835 14.2212L0.501411 14.2725L0.543045 14.3093L0.705053 14.1264ZM0.535132 13.1918L0.779206 13.1801L0.779206 13.1801L0.535132 13.1918ZM0.522436 11.5502L0.278099 11.5472L0.278099 11.5472L0.522436 11.5502ZM0.528296 10.8227L0.283939 10.8225L0.283939 10.8226L0.528296 10.8227ZM0.532202 6.19672L0.776559 6.19693L0.776558 6.19645L0.532202 6.19672ZM0.528296 2.69575L0.283939 2.69591L0.283939 2.69602L0.528296 2.69575ZM0.514624 2.20551L0.270453 2.21503L0.270455 2.21508L0.514624 2.20551ZM0.5781 0.837347L0.341342 0.776887L0.341328 0.776942L0.5781 0.837347ZM0.942358 0.406683L0.926551 0.162838L0.86387 0.166902L0.810919 0.200688L0.942358 0.406683ZM6.90427 1.67426L6.78548 1.8878L6.78548 1.8878L6.90427 1.67426ZM8.55076 2.80219L8.40342 2.99714L8.54978 3.10774L8.69684 2.99808L8.55076 2.80219ZM9.46189 2.14399L9.59975 2.34574L9.59975 2.34574L9.46189 2.14399ZM15.1006 0.399847L15.1066 0.644127L15.1067 0.644127L15.1006 0.399847ZM15.126 1.95942L15.3703 1.95563L15.3665 1.71307L15.1239 1.71507L15.126 1.95942ZM14.3847 1.97797L14.4068 2.22155L14.4169 2.2202L14.3847 1.97797ZM9.50583 4.04145L9.31988 3.88292L9.31918 3.88375L9.50583 4.04145ZM9.36912 4.2143L9.17375 4.06753L9.12478 4.13271L9.12476 4.21423L9.36912 4.2143ZM9.36619 14.5151L9.12183 14.515L9.12169 14.9949L9.50986 14.7127L9.36619 14.5151ZM9.91599 14.1157L9.79068 13.9059L9.78348 13.9102L9.7766 13.915L9.91599 14.1157ZM15.1338 12.9125L15.1513 13.1563L15.3781 13.14L15.3781 12.9125L15.1338 12.9125ZM2.00095 1.96137L1.99299 1.71714L1.76238 1.72466L1.75667 1.95532L2.00095 1.96137ZM1.97947 6.5434L1.73511 6.54468V6.54469L1.97947 6.5434ZM1.9863 8.42035L1.74195 8.42039V8.42041L1.9863 8.42035ZM1.97458 9.8061L1.73023 9.803V9.8061H1.97458ZM1.97458 9.81L2.21894 9.81308V9.81H1.97458ZM1.99998 12.8823L1.75593 12.8946L1.76665 13.1074L1.97902 13.1257L1.99998 12.8823ZM7.749 14.4956L7.60443 14.6926L7.99477 14.979L7.99335 14.4948L7.749 14.4956ZM7.80564 4.24067L8.04997 4.24409L8.05136 4.14475L7.98304 4.07262L7.80564 4.24067ZM2.48728 1.95844L2.49414 1.71417L2.49251 1.71414L2.48728 1.95844ZM15.3574 0.388128L15.3704 0.63214C15.6529 0.617122 15.9122 0.605534 16.1206 0.652016L16.1738 0.413519L16.227 0.175022C15.9405 0.111132 15.6097 0.130017 15.3444 0.144116L15.3574 0.388128ZM16.1738 0.413519L16.1206 0.652021C16.1745 0.664019 16.203 0.676416 16.2215 0.688081C16.238 0.6985 16.2571 0.714972 16.2807 0.751214L16.4853 0.61762L16.6899 0.484026C16.6339 0.398275 16.5669 0.328226 16.4824 0.274858C16.3999 0.222736 16.3125 0.194078 16.227 0.175016L16.1738 0.413519ZM16.4853 0.61762L16.245 0.661624C16.296 0.940283 16.3387 1.2025 16.3486 1.46846L16.5927 1.45942L16.8369 1.45037C16.8257 1.14666 16.7772 0.854865 16.7257 0.573616L16.4853 0.61762ZM16.5927 1.45942L16.3486 1.46851C16.3708 2.06582 16.3659 2.66868 16.3601 3.27643L16.6045 3.27875L16.8488 3.28108C16.8546 2.67464 16.8597 2.06075 16.8369 1.45033L16.5927 1.45942ZM16.6045 3.27875L16.3601 3.27642C16.3575 3.55099 16.3543 3.82813 16.3543 4.10395H16.5986H16.843C16.843 3.83112 16.8462 3.5572 16.8488 3.28108L16.6045 3.27875ZM16.5986 4.10395H16.3543V9.33442H16.5986H16.843V4.10395H16.5986ZM16.5986 9.33442L16.3543 9.33469C16.3544 9.50876 16.3589 9.79986 16.365 10.1512L16.6094 10.1469L16.8537 10.1427C16.8476 9.79023 16.8432 9.50344 16.843 9.33414L16.5986 9.33442ZM16.6094 10.1469L16.365 10.1511C16.3757 10.7678 16.3897 11.5741 16.3872 12.2813C16.386 12.635 16.3806 12.9616 16.3689 13.226C16.3567 13.4986 16.3384 13.6824 16.3177 13.7652L16.5547 13.8247L16.7917 13.8841C16.8263 13.746 16.8453 13.5135 16.8571 13.2477C16.8693 12.9736 16.8747 12.6394 16.8759 12.283C16.8784 11.5698 16.8643 10.7582 16.8537 10.1427L16.6094 10.1469ZM16.5547 13.8247L16.3177 13.7651C16.286 13.8912 16.2419 13.9703 16.1865 14.0333C16.1274 14.1004 16.0448 14.1616 15.915 14.2382L16.039 14.4487L16.1631 14.6592C16.3076 14.5741 16.443 14.4816 16.5534 14.3562C16.6673 14.2267 16.7438 14.0746 16.7917 13.8842L16.5547 13.8247ZM16.039 14.4487L16.0083 14.2063C15.7779 14.2355 15.5348 14.2417 15.2797 14.2473L15.2851 14.4916L15.2905 14.7359C15.5419 14.7304 15.8101 14.7241 16.0698 14.6911L16.039 14.4487ZM15.2851 14.4916L15.2797 14.2473C15.1491 14.2502 15.0124 14.2526 14.8783 14.2593L14.8906 14.5034L14.9029 14.7474C15.0282 14.7411 15.156 14.7389 15.2905 14.7359L15.2851 14.4916ZM14.8906 14.5034L14.8782 14.2593C13.6551 14.3215 12.3235 14.4477 11.1553 14.9876L11.2578 15.2094L11.3603 15.4312C12.4356 14.9342 13.6835 14.8094 14.903 14.7474L14.8906 14.5034ZM11.2578 15.2094L11.1553 14.9876C10.8463 15.1304 10.5279 15.3023 10.2446 15.5179L10.3926 15.7123L10.5405 15.9068C10.785 15.7207 11.0687 15.566 11.3603 15.4312L11.2578 15.2094ZM10.3926 15.7123L10.2446 15.5179C10.0967 15.6304 9.93476 15.7834 9.77633 15.9333L9.94431 16.1108L10.1123 16.2882C10.2761 16.1332 10.4178 16.0002 10.5405 15.9068L10.3926 15.7123ZM9.94431 16.1108L9.77632 15.9333C9.57302 16.1258 9.36825 16.319 9.1625 16.4683C8.95302 16.6203 8.77461 16.7023 8.62698 16.7106L8.6406 16.9545L8.65422 17.1985C8.94442 17.1823 9.21701 17.0326 9.44951 16.8639C9.68573 16.6925 9.9139 16.4761 10.1123 16.2882L9.94431 16.1108ZM8.6406 16.9545L8.62715 16.7105C8.4493 16.7203 8.25616 16.6499 8.03752 16.508C7.81893 16.3662 7.6036 16.1726 7.37949 15.9704L7.2158 16.1518L7.0521 16.3332C7.26962 16.5295 7.51431 16.7511 7.77152 16.918C8.02869 17.0849 8.32714 17.2165 8.65405 17.1985L8.6406 16.9545ZM7.2158 16.1518L7.37947 15.9704C7.1736 15.7846 6.95506 15.5877 6.74179 15.453L6.6113 15.6596L6.48081 15.8662C6.65174 15.9742 6.83786 16.14 7.05212 16.3332L7.2158 16.1518ZM6.6113 15.6596L6.74175 15.453C6.2544 15.1453 5.70784 14.9105 5.17169 14.735L5.09568 14.9672L5.01967 15.1995C5.52871 15.3661 6.03622 15.5855 6.48085 15.8662L6.6113 15.6596ZM5.09568 14.9672L5.17163 14.735C4.28516 14.4451 3.35034 14.2975 2.43049 14.2428L2.41599 14.4868L2.40149 14.7307C3.29026 14.7835 4.18211 14.9256 5.01973 15.1995L5.09568 14.9672ZM2.41599 14.4868L2.43067 14.2428C2.2848 14.2341 2.13539 14.2351 1.99622 14.2356L1.99705 14.4799L1.99787 14.7243C2.14152 14.7238 2.2741 14.723 2.40132 14.7307L2.41599 14.4868ZM1.99705 14.4799L1.99622 14.2356C1.72825 14.2365 1.49058 14.2363 1.27432 14.1886L1.22165 14.4272L1.16899 14.6658C1.44755 14.7273 1.74115 14.7251 1.99787 14.7243L1.99705 14.4799ZM1.22165 14.4272L1.27469 14.1887C1.12341 14.155 1.02371 14.0822 0.867062 13.9435L0.705053 14.1264L0.543045 14.3093C0.710473 14.4576 0.888884 14.6035 1.16862 14.6657L1.22165 14.4272ZM0.705053 14.1264L0.930272 14.0316C0.8294 13.792 0.793635 13.4802 0.779206 13.1801L0.535132 13.1918L0.291057 13.2036C0.30585 13.5113 0.343376 13.897 0.479835 14.2212L0.705053 14.1264ZM0.535132 13.1918L0.779206 13.1801C0.753469 12.6451 0.759935 12.1024 0.766774 11.5533L0.522436 11.5502L0.278099 11.5472C0.27129 12.0939 0.264493 12.6514 0.291057 13.2036L0.535132 13.1918ZM0.522436 11.5502L0.766773 11.5533C0.769828 11.3101 0.772505 11.066 0.772652 10.8228L0.528296 10.8227L0.283939 10.8226C0.283794 11.0626 0.281151 11.3042 0.278099 11.5472L0.522436 11.5502ZM0.528296 10.8227L0.772652 10.8229L0.776558 6.19693L0.532202 6.19672L0.287846 6.19652L0.283939 10.8225L0.528296 10.8227ZM0.532202 6.19672L0.776558 6.19645L0.772652 2.69547L0.528296 2.69575L0.283939 2.69602L0.287846 6.19699L0.532202 6.19672ZM0.528296 2.69575L0.772652 2.69558C0.772545 2.53714 0.765451 2.36589 0.758793 2.19595L0.514624 2.20551L0.270455 2.21508C0.277242 2.38832 0.28384 2.54895 0.283939 2.69591L0.528296 2.69575ZM0.514624 2.20551L0.758795 2.19599C0.740234 1.72 0.724325 1.25268 0.814873 0.897752L0.5781 0.837347L0.341328 0.776942C0.229562 1.21504 0.25275 1.76103 0.270453 2.21503L0.514624 2.20551ZM0.5781 0.837347L0.814859 0.897807C0.846166 0.775211 0.901812 0.722416 1.0738 0.612677L0.942358 0.406683L0.810919 0.200688C0.618083 0.323732 0.421314 0.463717 0.341342 0.776887L0.5781 0.837347ZM0.942358 0.406683L0.958166 0.650527C2.92432 0.523069 5.06835 0.932503 6.78548 1.8878L6.90427 1.67426L7.02307 1.46073C5.21366 0.454092 2.97398 0.0301111 0.926551 0.162838L0.942358 0.406683ZM6.90427 1.67426L6.78548 1.8878C7.35376 2.20394 7.86785 2.59237 8.40342 2.99714L8.55076 2.80219L8.69809 2.60725C8.1671 2.20595 7.62615 1.79623 7.02306 1.46072L6.90427 1.67426ZM8.55076 2.80219L8.69684 2.99808C8.9965 2.77461 9.29551 2.55363 9.59975 2.34574L9.46189 2.14399L9.32403 1.94223C9.01068 2.15635 8.70457 2.38266 8.40468 2.60631L8.55076 2.80219ZM9.46189 2.14399L9.59975 2.34574C11.2158 1.24148 13.1451 0.693011 15.1066 0.644127L15.1006 0.399847L15.0945 0.155566C13.0516 0.206477 11.0278 0.77798 9.32403 1.94224L9.46189 2.14399ZM15.1006 0.399847L15.1067 0.644127C15.1927 0.641978 15.2838 0.636741 15.3704 0.63214L15.3574 0.388128L15.3444 0.144116C15.2541 0.148916 15.1718 0.153635 15.0945 0.155567L15.1006 0.399847ZM15.126 1.95942L15.1239 1.71507C14.9044 1.71688 14.6132 1.70115 14.3526 1.73574L14.3847 1.97797L14.4169 2.2202C14.6376 2.19091 14.8613 2.20596 15.128 2.20377L15.126 1.95942ZM14.3847 1.97797L14.3627 1.73461C13.5209 1.81072 12.5583 2.0027 11.66 2.34523C10.7636 2.68703 9.9149 3.18494 9.31988 3.88292L9.50583 4.04145L9.69179 4.19997C10.2152 3.58596 10.9825 3.12659 11.8341 2.80187C12.6838 2.47789 13.6015 2.29414 14.4067 2.22134L14.3847 1.97797ZM9.50583 4.04145L9.31918 3.88375C9.26776 3.94461 9.21945 4.0067 9.17375 4.06753L9.36912 4.2143L9.56448 4.36107C9.60697 4.30452 9.64919 4.2504 9.69249 4.19915L9.50583 4.04145ZM9.36912 4.2143L9.12476 4.21423L9.12183 14.515L9.36619 14.5151L9.61054 14.5152L9.61347 4.21437L9.36912 4.2143ZM9.36619 14.5151L9.50986 14.7127C9.69847 14.5756 9.8722 14.4436 10.0554 14.3164L9.91599 14.1157L9.7766 13.915C9.58827 14.0458 9.39965 14.1887 9.22251 14.3174L9.36619 14.5151ZM9.91599 14.1157L10.0413 14.3254C11.5221 13.4409 13.387 13.2831 15.1513 13.1563L15.1338 12.9125L15.1162 12.6688C13.3728 12.7942 11.3875 12.952 9.79068 13.9059L9.91599 14.1157ZM15.1338 12.9125L15.3781 12.9125C15.3782 9.26831 15.4268 5.60604 15.3703 1.95563L15.126 1.95942L14.8816 1.9632C14.9381 5.60888 14.8895 9.25932 14.8894 12.9125L15.1338 12.9125ZM2.00095 1.96137L1.75667 1.95532C1.71881 3.48383 1.72715 5.01791 1.73511 6.54468L1.97947 6.5434L2.22382 6.54213C2.21585 5.01402 2.20759 3.48734 2.24523 1.96742L2.00095 1.96137ZM1.97947 6.5434L1.73511 6.54469C1.73841 7.17093 1.74185 7.79606 1.74195 8.42039L1.9863 8.42035L2.23066 8.42032C2.23056 7.79449 2.22711 7.16802 2.22382 6.54212L1.97947 6.5434ZM1.9863 8.42035L1.74195 8.42041C1.74204 8.87791 1.73612 9.33915 1.73025 9.803L1.97458 9.8061L2.21892 9.80919C2.22479 9.34597 2.23076 8.88152 2.23066 8.4203L1.9863 8.42035ZM1.97458 9.8061H1.73023V9.81H1.97458H2.21894V9.8061H1.97458ZM1.97458 9.81L1.73025 9.80692C1.71733 10.8316 1.70441 11.8713 1.75593 12.8946L1.99998 12.8823L2.24402 12.87C2.19341 11.8646 2.20597 10.8404 2.21892 9.81308L1.97458 9.81ZM1.99998 12.8823L1.97902 13.1257C4.0149 13.301 5.97983 13.5004 7.60443 14.6926L7.749 14.4956L7.89357 14.2985C6.14215 13.0133 4.03792 12.8125 2.02094 12.6388L1.99998 12.8823ZM7.749 14.4956L7.99335 14.4948C7.98338 11.0777 8.00212 7.66074 8.04997 4.24409L7.80564 4.24067L7.56131 4.23725C7.51342 7.65667 7.49466 11.0764 7.50464 14.4963L7.749 14.4956ZM7.80564 4.24067L7.98304 4.07262C6.60627 2.61917 4.46567 1.76953 2.49414 1.71418L2.48728 1.95844L2.48042 2.2027C4.33862 2.25486 6.35096 3.0603 7.62824 4.40871L7.80564 4.24067ZM2.48728 1.95844L2.49251 1.71414C2.32587 1.71057 2.15911 1.71173 1.99299 1.71714L2.00095 1.96137L2.00891 2.2056C2.16667 2.20045 2.32462 2.19937 2.48205 2.20274L2.48728 1.95844Z" fill="#010101" />
</svg>